<svg xmlns="http://www.w3.org/2000/svg" width="120" height="120" fill="none"><g clip-path="url(#clip0_2237_26033)"><circle cx="60" cy="60" r="60" fill="url(#paint0_linear_2237_26033)"/><circle cx="60" cy="60" r="59" stroke="url(#paint1_linear_2237_26033)" stroke-width="2"/><ellipse cx="60.5" cy="111.5" fill="url(#paint2_radial_2237_26033)" rx="50.5" ry="5.5"/><rect width="105.994" height="74.131" x="6.608" y="15.118" fill="url(#paint3_linear_2237_26033)" rx="7.803"/><rect width="105.994" height="74.131" x="6.608" y="15.118" fill="url(#paint4_linear_2237_26033)" rx="8"/><rect width="105.594" height="73.731" x="6.808" y="15.318" stroke="url(#paint5_radial_2237_26033)" stroke-width=".4" rx="6.8"/><path fill="#111B2C" d="M8 23.619a7.2 7.2 0 0 1 7.2-7.2h88.993a7.2 7.2 0 0 1 7.2 7.2v54.997a7.803 7.803 0 0 1-7.803 7.803H15.803A7.803 7.803 0 0 1 8 78.616V23.619z"/><path stroke="url(#paint6_radial_2237_26033)" stroke-width=".3" d="M28 86.618h62.5"/><g filter="url(#filter0_d_2237_26033)"><path fill="#24C5F7" d="M75 21.118h-5.631v2.17H75z"/></g><path fill="#24C5F7" d="M67.09 21.118h-5.63v2.17h5.63zm-15.82 0h-1.877v2.17h1.877zm-4.156 0h-1.877v2.17h1.877zm-4.156 0h-5.63v2.17h5.63z" opacity=".25"/><g filter="url(#filter1_d_2237_26033)"><path fill="#24C5F7" d="M35.048 21.118h-5.63v2.17h5.63z"/></g><path fill="#24C5F7" d="M27.138 21.118H14v2.17h13.14zm32.042 0h-5.63v2.17h5.63z" opacity=".25"/><g opacity=".8"><path fill="#24C5F7" d="M19.63 64.49H14v2.169h5.63zm7.91 0h-5.63v2.169h5.63zm12.067 0H37.73v2.169h1.877zm4.156 0h-1.877v2.169h1.877zm7.91 0h-5.631v2.169h5.63z" opacity=".25"/><g filter="url(#filter2_d_2237_26033)"><path fill="#24C5F7" d="M59.582 64.49h-5.63v2.169h5.63z"/></g><path fill="#24C5F7" d="M75 64.49H61.861v2.169H75z" opacity=".25"/><g filter="url(#filter3_d_2237_26033)"><path fill="#24C5F7" d="M35.45 64.49h-5.63v2.169h5.63z"/></g></g><path fill="#24C5F7" d="M75 51.478h-5.631v2.17H75zm-7.91 0h-5.63v2.17h5.63zm-15.82 0h-1.877v2.17h1.877z" opacity=".25"/><g filter="url(#filter4_d_2237_26033)"><path fill="#24C5F7" d="M47.114 51.478h-1.877v2.17h1.877z"/></g><path fill="#24C5F7" d="M42.958 51.478h-5.63v2.17h5.63z" opacity=".25"/><g filter="url(#filter5_d_2237_26033)"><path fill="#24C5F7" d="M35.048 51.478h-5.63v2.17h5.63z"/></g><path fill="#24C5F7" d="M27.138 51.478H14v2.17h13.14z" opacity=".25"/><g filter="url(#filter6_d_2237_26033)"><path fill="#24C5F7" d="M59.18 51.478h-5.63v2.17h5.63z"/></g><path fill="#24C5F7" d="M75 55.816h-5.631v2.169H75z" opacity=".25"/><g filter="url(#filter7_d_2237_26033)"><path fill="#24C5F7" d="M67.09 55.816H56.767v2.169H67.09z"/></g><path fill="#24C5F7" d="M55.024 55.816h-5.63v2.169h5.63zm-7.91 0h-7.508v2.169h7.508zm-10.189 0h-4.692v2.169h4.692zm-16.355 0H14v2.169h6.57z" opacity=".25"/><g filter="url(#filter8_d_2237_26033)"><path fill="#24C5F7" d="M29.954 55.816h-6.57v2.169h6.57z"/></g><g filter="url(#filter9_d_2237_26033)"><path fill="#24C5F7" d="M75 60.153H63.739v2.169H75z"/></g><path fill="#24C5F7" d="M61.593 60.153h-12.2v2.169h12.2z" opacity=".25"/><g filter="url(#filter10_d_2237_26033)"><path fill="#24C5F7" d="M47.114 60.153H37.73v2.169h9.385z"/></g><path fill="#24C5F7" d="M29.954 60.153H14v2.169h15.954zm5.631 0H31.83v2.169h3.754z" opacity=".25"/><g opacity=".03"><g filter="url(#filter11_d_2237_26033)"><path fill="#24C5F7" d="M59.985 86.57H48.724v2.169h11.26z"/></g><path fill="#24C5F7" d="M46.578 86.57h-12.2v2.169h12.2z" opacity=".25"/><g filter="url(#filter12_d_2237_26033)"><path fill="#24C5F7" d="M32.099 86.57h-9.385v2.169h9.385z"/></g><g filter="url(#filter13_d_2237_26033)"><path fill="#24C5F7" d="M20.57 86.57h-3.755v2.169h3.754z"/></g></g><g opacity=".7"><path fill="#24C5F7" d="M19.63 68.827H14v2.169h5.63z" opacity=".25"/><g filter="url(#filter14_d_2237_26033)"><path fill="#24C5F7" d="M32.233 68.827H21.91v2.169h10.323z"/></g><path fill="#24C5F7" d="M39.607 68.827h-5.631v2.169h5.63z" opacity=".25"/><g filter="url(#filter15_d_2237_26033)"><path fill="#24C5F7" d="M49.393 68.827h-7.508v2.169h7.508z"/></g><path fill="#24C5F7" d="M56.767 68.827h-4.692v2.169h4.692z" opacity=".25"/><g filter="url(#filter16_d_2237_26033)"><path fill="#24C5F7" d="M75 68.827h-6.569v2.169H75z"/></g><path fill="#24C5F7" d="M65.615 68.827h-6.569v2.169h6.57z" opacity=".25"/></g><path fill="#24C5F7" d="M25.262 47.141H14v2.17h11.26zm14.345 0h-5.631v2.17h5.63zm-7.508 0h-5.631v2.17h5.63z" opacity=".25"/><g filter="url(#filter17_d_2237_26033)"><path fill="#24C5F7" d="M57.84 47.141H41.886v2.17H57.84z"/></g><path fill="#24C5F7" d="M75 47.141H59.046v2.17H75zM19.63 34.13H14v2.169h5.63zm7.91 0h-5.63v2.169h5.63zm12.067 0H37.73v2.169h1.877zm4.156 0h-1.877v2.169h1.877z" opacity=".25"/><g filter="url(#filter18_d_2237_26033)"><path fill="#24C5F7" d="M51.673 34.13h-5.631v2.169h5.63z"/></g><path fill="#24C5F7" d="M59.582 34.13h-5.63v2.169h5.63z" opacity=".25"/><g filter="url(#filter19_d_2237_26033)"><path fill="#24C5F7" d="M75 34.13H61.861v2.169H75z"/></g><path fill="#24C5F7" d="M35.45 34.13h-5.63v2.169h5.63z" opacity=".25"/><g opacity=".3"><path fill="#24C5F7" d="M19.63 77.501H14v2.17h5.63zm7.91 0h-5.63v2.17h5.63z" opacity=".25"/><g filter="url(#filter20_d_2237_26033)"><path fill="#24C5F7" d="M39.607 77.501H37.73v2.17h1.877z"/></g><g filter="url(#filter21_d_2237_26033)"><path fill="#24C5F7" d="M43.763 77.501h-1.877v2.17h1.877z"/></g><path fill="#24C5F7" d="M51.673 77.501h-5.631v2.17h5.63z" opacity=".25"/><g filter="url(#filter22_d_2237_26033)"><path fill="#24C5F7" d="M59.582 77.501h-5.63v2.17h5.63z"/></g><path fill="#24C5F7" d="M75 77.501H61.861v2.17H75zm-39.55 0h-5.63v2.17h5.63z" opacity=".25"/></g><path fill="#24C5F7" d="M19.63 38.467H14v2.169h5.63zm12.603 0H21.91v2.169h10.323zm7.374 0h-5.631v2.169h5.63z" opacity=".25"/><g filter="url(#filter23_d_2237_26033)"><path fill="#24C5F7" d="M49.393 38.467h-7.508v2.169h7.508z"/></g><path fill="#24C5F7" d="M56.767 38.467h-4.692v2.169h4.692zm18.233 0h-6.569v2.169H75zm-9.385 0h-6.569v2.169h6.57z" opacity=".25"/><g opacity=".1"><path fill="#24C5F7" d="M19.63 81.838H14v2.17h5.63z" opacity=".25"/><g filter="url(#filter24_d_2237_26033)"><path fill="#24C5F7" d="M32.233 81.838H21.91v2.17h10.323z"/></g><path fill="#24C5F7" d="M39.607 81.838h-5.631v2.17h5.63z" opacity=".25"/><g filter="url(#filter25_d_2237_26033)"><path fill="#24C5F7" d="M49.393 81.838h-7.508v2.17h7.508z"/></g><path fill="#24C5F7" d="M56.767 81.838h-4.692v2.17h4.692z" opacity=".25"/><g filter="url(#filter26_d_2237_26033)"><path fill="#24C5F7" d="M75 81.838h-6.569v2.17H75z"/></g><path fill="#24C5F7" d="M64.762 81.838h-6.569v2.17h6.57z" opacity=".25"/></g><path fill="#24C5F7" d="M25.262 42.804H14v2.169h11.26z" opacity=".25"/><g filter="url(#filter27_d_2237_26033)"><path fill="#24C5F7" d="M39.607 42.804h-12.2v2.169h12.2z"/></g><path fill="#24C5F7" d="M51.27 42.804h-9.385v2.169h9.385z" opacity=".25"/><g filter="url(#filter28_d_2237_26033)"><path fill="#24C5F7" d="M75 42.804H59.046v2.169H75z"/></g><path fill="#24C5F7" d="M57.17 42.804h-3.755v2.169h3.754zM75 25.455h-5.631v2.17H75z" opacity=".25"/><g filter="url(#filter29_d_2237_26033)"><path fill="#24C5F7" d="M67.09 25.455H56.767v2.17H67.09z"/></g><path fill="#24C5F7" d="M55.024 25.455h-5.63v2.17h5.63z" opacity=".25"/><g filter="url(#filter30_d_2237_26033)"><path fill="#24C5F7" d="M47.114 25.455h-7.508v2.17h7.508z"/></g><path fill="#24C5F7" d="M36.925 25.455h-4.692v2.17h4.692zm-16.355 0H14v2.17h6.57zm9.384 0h-6.57v2.17h6.57zM75 29.793H63.739v2.169H75zm-13.407 0h-12.2v2.169h12.2zm-14.479 0H37.73v2.169h9.385z" opacity=".25"/><g filter="url(#filter31_d_2237_26033)"><path fill="#24C5F7" d="M29.954 29.793H14v2.169h15.954z"/></g><path fill="#24C5F7" d="M35.585 29.793H31.83v2.169h3.754z" opacity=".25"/><g opacity=".4"><path fill="#24C5F7" d="M75 73.164H63.739v2.169H75z" opacity=".25"/><g filter="url(#filter32_d_2237_26033)"><path fill="#24C5F7" d="M61.593 73.164h-12.2v2.169h12.2z"/></g><path fill="#24C5F7" d="M47.114 73.164H37.73v2.169h9.385z" opacity=".25"/><g filter="url(#filter33_d_2237_26033)"><path fill="#24C5F7" d="M29.954 73.164H14v2.169h15.954z"/></g><path fill="#24C5F7" d="M35.585 73.164H31.83v2.169h3.754z" opacity=".25"/></g><path fill="url(#paint7_linear_2237_26033)" d="M.302 96.7h119.382c0 7.963-6.456 14.418-14.418 14.418H14.72C6.757 111.118.302 104.663.302 96.7z"/><path fill="url(#paint8_linear_2237_26033)" d="M.302 97.415c0-.395.32-.715.715-.715h117.952c.395 0 .715.32.715.715 0 7.568-6.136 13.703-13.704 13.703H14.005c-7.568 0-13.703-6.135-13.703-13.703z" opacity=".5"/><path fill="url(#paint9_linear_2237_26033)" d="M.302 97.415c0-.395.32-.715.715-.715h117.952c.395 0 .715.32.715.715 0 7.568-6.136 13.703-13.704 13.703H14.005c-7.568 0-13.703-6.135-13.703-13.703z" opacity=".5"/><path fill="url(#paint10_radial_2237_26033)" d="M.302 96.7h119.382v14.418H.302V96.7z" opacity=".399"/><path fill="url(#paint11_linear_2237_26033)" d="M48 97.512h19l-2 2H50l-2-2z"/><path fill="url(#paint12_radial_2237_26033)" d="M48 97.512h19l-2 2H50l-2-2z" opacity=".8"/><path fill="url(#paint13_radial_2237_26033)" d="M48 97.512h19l-2 2H50l-2-2z" opacity=".8"/><path fill="url(#paint14_linear_2237_26033)" d="M5.61 91.197a11.055 11.055 0 0 1 6.874-2.398h95.032c2.496 0 4.919.845 6.875 2.398l5.115 4.062c.964.766.423 2.319-.809 2.319H1.303c-1.232 0-1.773-1.553-.809-2.32l5.115-4.061z"/><path fill="url(#paint15_radial_2237_26033)" d="M5.61 91.197a11.055 11.055 0 0 1 6.874-2.398h95.032c2.496 0 4.919.845 6.875 2.398l5.115 4.062c.964.766.423 2.319-.809 2.319H1.303c-1.232 0-1.773-1.553-.809-2.32l5.115-4.061z" opacity=".399"/><path stroke="url(#paint16_radial_2237_26033)" stroke-width=".65" d="M12.484 89.124h95.032c2.423 0 4.775.82 6.672 2.327l5.115 4.062c.724.575.318 1.74-.606 1.74H1.303c-.924 0-1.33-1.165-.606-1.74l5.115-4.062a10.73 10.73 0 0 1 6.672-2.327z"/><path stroke="url(#paint17_radial_2237_26033)" stroke-width=".65" d="M12.484 89.124h95.032c2.423 0 4.775.82 6.672 2.327l5.115 4.062c.724.575.318 1.74-.606 1.74H1.303c-.924 0-1.33-1.165-.606-1.74l5.115-4.062a10.73 10.73 0 0 1 6.672-2.327z"/><path fill="#141E2F" d="M32.64 93.78a1.04 1.04 0 0 1 .866-.464h51.948c.348 0 .673.174.866.464l1.34 2.01a.416.416 0 0 1-.346.648H31.646a.416.416 0 0 1-.347-.647l1.34-2.011z"/><path fill="#141E2F" fill-rule="evenodd" d="M23.755 89.728a.87.87 0 0 1 .818-.573h8.428a.87.87 0 0 1 .818.573.348.348 0 0 1-.327.467h-9.41a.348.348 0 0 1-.327-.467zm10.404 0a.87.87 0 0 1 .818-.573h8.428a.87.87 0 0 1 .819.573.348.348 0 0 1-.328.467h-9.41a.348.348 0 0 1-.327-.467zm11.223-.573a.87.87 0 0 0-.819.573.348.348 0 0 0 .328.467h9.41c.241 0 .41-.24.327-.467a.87.87 0 0 0-.818-.573h-8.428zm9.586.573a.87.87 0 0 1 .818-.573h8.428a.87.87 0 0 1 .818.573.348.348 0 0 1-.327.467h-9.41a.348.348 0 0 1-.327-.467zm21.627-.573a.87.87 0 0 0-.819.573.348.348 0 0 0 .328.467h9.41c.241 0 .41-.24.327-.467a.87.87 0 0 0-.818-.573h-8.428zm-11.223.573a.87.87 0 0 1 .818-.573h8.428a.87.87 0 0 1 .819.573.348.348 0 0 1-.328.467H65.7a.348.348 0 0 1-.327-.467zM87 89.155a.87.87 0 0 0-.818.573.348.348 0 0 0 .327.467h9.41c.242 0 .41-.24.327-.467a.87.87 0 0 0-.818-.573H87zm-59.082 2.654a.87.87 0 0 1 .818-.573h8.428a.87.87 0 0 1 .818.573.348.348 0 0 1-.327.467h-9.41a.348.348 0 0 1-.327-.467zm-9.587-.573a.87.87 0 0 0-.818.573.348.348 0 0 0 .328.467h9.41c.241 0 .41-.24.327-.467a.87.87 0 0 0-.819-.573h-8.427zm19.99.573a.87.87 0 0 1 .82-.573h8.427a.87.87 0 0 1 .818.573.348.348 0 0 1-.327.467h-9.41a.348.348 0 0 1-.327-.467zm11.224-.573a.87.87 0 0 0-.819.573.348.348 0 0 0 .328.467h9.41c.241 0 .41-.24.327-.467a.87.87 0 0 0-.819-.573h-8.427zm19.99.573a.87.87 0 0 1 .818-.573h8.428a.87.87 0 0 1 .818.573.348.348 0 0 1-.327.467h-9.41a.348.348 0 0 1-.327-.467zm-9.586-.573a.87.87 0 0 0-.819.573.348.348 0 0 0 .328.467h9.41c.241 0 .41-.24.327-.467a.87.87 0 0 0-.818-.573h-8.428zm19.99.573a.87.87 0 0 1 .818-.573h8.428a.87.87 0 0 1 .819.573.348.348 0 0 1-.328.467h-9.41a.348.348 0 0 1-.327-.467zm11.223-.573a.87.87 0 0 0-.819.573.348.348 0 0 0 .328.467h9.41c.241 0 .41-.24.327-.467a.87.87 0 0 0-.818-.573h-8.43z" clip-rule="evenodd"/><g filter="url(#filter34_d_2237_26033)"><path fill="url(#paint18_radial_2237_26033)" d="M91.141 39.217 85 36.508v-.885l6.141-3.067v1.484L86.911 36l4.23 1.738v1.479z"/><path fill="url(#paint19_radial_2237_26033)" d="M95.94 37.739 100.17 36l-4.23-1.96v-1.485l6.141 3.067v.885l-6.141 2.709v-1.478z"/><path fill="#24C5F7" d="M86.57 48.576c0-2.847 1.87-5.28 4.51-6.257.13-.048.265.05.265.188v7.23c0 .111.09.202.202.202h4.089c.112 0 .203-.09.203-.203v-7.28c0-.136.131-.233.26-.189 2.716.942 4.655 3.41 4.655 6.309 0 2.686-1.666 5.004-4.073 6.077v15.924a2 2 0 0 1-2 2h-2.038a2 2 0 0 1-2-2V54.653c-2.407-1.073-4.073-3.391-4.073-6.077z"/><path fill="url(#paint20_radial_2237_26033)" d="M93.1 32.118h1v15h-1v-15z"/></g><g filter="url(#filter35_d_2237_26033)"><circle cx="103.5" cy="102.618" r="1.5" fill="#24C5F7"/></g><rect width="17" height="3" x="7" y="101.118" fill="#141E2F" rx="1.5"/><g filter="url(#filter36_d_2237_26033)"><rect width="8" height="3" x="7" y="101.118" fill="#24C5F7" rx="1.5"/></g><path stroke="url(#paint21_linear_2237_26033)" stroke-width="2" d="m58.387 3.118-23 38 40 16.5"/><path stroke="url(#paint22_linear_2237_26033)" stroke-width="2" d="m58.387 5.118 26.113 10"/><circle cx="57.497" cy="4.615" r="2.916" fill="url(#paint23_linear_2237_26033)" transform="rotate(-167 57.497 4.615)"/><circle cx="74.362" cy="57.603" r="10.41" fill="url(#paint24_radial_2237_26033)" opacity=".3" transform="rotate(-167 74.362 57.603)"/><g filter="url(#filter37_d_2237_26033)"><circle cx="75.004" cy="57.561" r="3" fill="url(#paint25_radial_2237_26033)" transform="rotate(-167 75.004 57.561)"/></g><circle cx="36.184" cy="39.916" r="4" fill="url(#paint26_linear_2237_26033)" transform="rotate(-167 36.184 39.916)"/><path fill="#fff" fill-opacity=".2" d="M40.116 40.516a3.862 3.862 0 0 1-.077.485 3.81 3.81 0 0 1-7.461-.183c.245.18.512.33.794.446a3.81 3.81 0 0 0 6.744-.748z"/><path fill="url(#paint27_linear_2237_26033)" d="M13 16.118a5 5 0 0 0-5 5v60.353a5 5 0 0 0 5 5h19V65c0-21.54 17.46-39 39-39h9.5C97.897 26 112 40.103 112 57.5c0 13-7.874 24.16-19.113 28.971H112V21.118a5 5 0 0 0-5-5H13z" opacity=".2"/><path stroke="url(#paint28_radial_2237_26033)" stroke-width=".3" d="M103 111.118H19" opacity=".4"/></g><defs><filter id="filter0_d_2237_26033" width="13.631" height="10.169" x="65.369" y="17.118" color-interpolation-filters="sRGB" filterUnits="userSpaceOnUse"><feFlood flood-opacity="0" result="BackgroundImageFix"/><feColorMatrix in="SourceAlpha" result="hardAlpha" values="0 0 0 0 0 0 0 0 0 0 0 0 0 0 0 0 0 0 127 0"/><feOffset/><feGaussianBlur stdDeviation="2"/><feColorMatrix values="0 0 0 0 0.141176 0 0 0 0 0.772549 0 0 0 0 0.968627 0 0 0 0.6 0"/><feBlend in2="BackgroundImageFix" result="effect1_dropShadow_2237_26033"/><feBlend in="SourceGraphic" in2="effect1_dropShadow_2237_26033" result="shape"/></filter><filter id="filter1_d_2237_26033" width="13.631" height="10.169" x="25.418" y="17.118" color-interpolation-filters="sRGB" filterUnits="userSpaceOnUse"><feFlood flood-opacity="0" result="BackgroundImageFix"/><feColorMatrix in="SourceAlpha" result="hardAlpha" values="0 0 0 0 0 0 0 0 0 0 0 0 0 0 0 0 0 0 127 0"/><feOffset/><feGaussianBlur stdDeviation="2"/><feColorMatrix values="0 0 0 0 0.141176 0 0 0 0 0.772549 0 0 0 0 0.968627 0 0 0 0.6 0"/><feBlend in2="BackgroundImageFix" result="effect1_dropShadow_2237_26033"/><feBlend in="SourceGraphic" in2="effect1_dropShadow_2237_26033" result="shape"/></filter><filter id="filter2_d_2237_26033" width="13.631" height="10.169" x="49.952" y="60.49" color-interpolation-filters="sRGB" filterUnits="userSpaceOnUse"><feFlood flood-opacity="0" result="BackgroundImageFix"/><feColorMatrix in="SourceAlpha" result="hardAlpha" values="0 0 0 0 0 0 0 0 0 0 0 0 0 0 0 0 0 0 127 0"/><feOffset/><feGaussianBlur stdDeviation="2"/><feColorMatrix values="0 0 0 0 0.141176 0 0 0 0 0.772549 0 0 0 0 0.968627 0 0 0 0.6 0"/><feBlend in2="BackgroundImageFix" result="effect1_dropShadow_2237_26033"/><feBlend in="SourceGraphic" in2="effect1_dropShadow_2237_26033" result="shape"/></filter><filter id="filter3_d_2237_26033" width="13.631" height="10.169" x="25.82" y="60.49" color-interpolation-filters="sRGB" filterUnits="userSpaceOnUse"><feFlood flood-opacity="0" result="BackgroundImageFix"/><feColorMatrix in="SourceAlpha" result="hardAlpha" values="0 0 0 0 0 0 0 0 0 0 0 0 0 0 0 0 0 0 127 0"/><feOffset/><feGaussianBlur stdDeviation="2"/><feColorMatrix values="0 0 0 0 0.141176 0 0 0 0 0.772549 0 0 0 0 0.968627 0 0 0 0.6 0"/><feBlend in2="BackgroundImageFix" result="effect1_dropShadow_2237_26033"/><feBlend in="SourceGraphic" in2="effect1_dropShadow_2237_26033" result="shape"/></filter><filter id="filter4_d_2237_26033" width="9.877" height="10.169" x="41.237" y="47.478" color-interpolation-filters="sRGB" filterUnits="userSpaceOnUse"><feFlood flood-opacity="0" result="BackgroundImageFix"/><feColorMatrix in="SourceAlpha" result="hardAlpha" values="0 0 0 0 0 0 0 0 0 0 0 0 0 0 0 0 0 0 127 0"/><feOffset/><feGaussianBlur stdDeviation="2"/><feColorMatrix values="0 0 0 0 0.141176 0 0 0 0 0.772549 0 0 0 0 0.968627 0 0 0 0.6 0"/><feBlend in2="BackgroundImageFix" result="effect1_dropShadow_2237_26033"/><feBlend in="SourceGraphic" in2="effect1_dropShadow_2237_26033" result="shape"/></filter><filter id="filter5_d_2237_26033" width="13.631" height="10.169" x="25.418" y="47.478" color-interpolation-filters="sRGB" filterUnits="userSpaceOnUse"><feFlood flood-opacity="0" result="BackgroundImageFix"/><feColorMatrix in="SourceAlpha" result="hardAlpha" values="0 0 0 0 0 0 0 0 0 0 0 0 0 0 0 0 0 0 127 0"/><feOffset/><feGaussianBlur stdDeviation="2"/><feColorMatrix values="0 0 0 0 0.141176 0 0 0 0 0.772549 0 0 0 0 0.968627 0 0 0 0.6 0"/><feBlend in2="BackgroundImageFix" result="effect1_dropShadow_2237_26033"/><feBlend in="SourceGraphic" in2="effect1_dropShadow_2237_26033" result="shape"/></filter><filter id="filter6_d_2237_26033" width="13.631" height="10.169" x="49.549" y="47.478" color-interpolation-filters="sRGB" filterUnits="userSpaceOnUse"><feFlood flood-opacity="0" result="BackgroundImageFix"/><feColorMatrix in="SourceAlpha" result="hardAlpha" values="0 0 0 0 0 0 0 0 0 0 0 0 0 0 0 0 0 0 127 0"/><feOffset/><feGaussianBlur stdDeviation="2"/><feColorMatrix values="0 0 0 0 0.141176 0 0 0 0 0.772549 0 0 0 0 0.968627 0 0 0 0.6 0"/><feBlend in2="BackgroundImageFix" result="effect1_dropShadow_2237_26033"/><feBlend in="SourceGraphic" in2="effect1_dropShadow_2237_26033" result="shape"/></filter><filter id="filter7_d_2237_26033" width="18.323" height="10.169" x="52.767" y="51.816" color-interpolation-filters="sRGB" filterUnits="userSpaceOnUse"><feFlood flood-opacity="0" result="BackgroundImageFix"/><feColorMatrix in="SourceAlpha" result="hardAlpha" values="0 0 0 0 0 0 0 0 0 0 0 0 0 0 0 0 0 0 127 0"/><feOffset/><feGaussianBlur stdDeviation="2"/><feColorMatrix values="0 0 0 0 0.141176 0 0 0 0 0.772549 0 0 0 0 0.968627 0 0 0 0.6 0"/><feBlend in2="BackgroundImageFix" result="effect1_dropShadow_2237_26033"/><feBlend in="SourceGraphic" in2="effect1_dropShadow_2237_26033" result="shape"/></filter><filter id="filter8_d_2237_26033" width="14.569" height="10.169" x="19.385" y="51.816" color-interpolation-filters="sRGB" filterUnits="userSpaceOnUse"><feFlood flood-opacity="0" result="BackgroundImageFix"/><feColorMatrix in="SourceAlpha" result="hardAlpha" values="0 0 0 0 0 0 0 0 0 0 0 0 0 0 0 0 0 0 127 0"/><feOffset/><feGaussianBlur stdDeviation="2"/><feColorMatrix values="0 0 0 0 0.141176 0 0 0 0 0.772549 0 0 0 0 0.968627 0 0 0 0.6 0"/><feBlend in2="BackgroundImageFix" result="effect1_dropShadow_2237_26033"/><feBlend in="SourceGraphic" in2="effect1_dropShadow_2237_26033" result="shape"/></filter><filter id="filter9_d_2237_26033" width="19.262" height="10.169" x="59.738" y="56.153" color-interpolation-filters="sRGB" filterUnits="userSpaceOnUse"><feFlood flood-opacity="0" result="BackgroundImageFix"/><feColorMatrix in="SourceAlpha" result="hardAlpha" values="0 0 0 0 0 0 0 0 0 0 0 0 0 0 0 0 0 0 127 0"/><feOffset/><feGaussianBlur stdDeviation="2"/><feColorMatrix values="0 0 0 0 0.141176 0 0 0 0 0.772549 0 0 0 0 0.968627 0 0 0 0.6 0"/><feBlend in2="BackgroundImageFix" result="effect1_dropShadow_2237_26033"/><feBlend in="SourceGraphic" in2="effect1_dropShadow_2237_26033" result="shape"/></filter><filter id="filter10_d_2237_26033" width="17.385" height="10.169" x="33.73" y="56.153" color-interpolation-filters="sRGB" filterUnits="userSpaceOnUse"><feFlood flood-opacity="0" result="BackgroundImageFix"/><feColorMatrix in="SourceAlpha" result="hardAlpha" values="0 0 0 0 0 0 0 0 0 0 0 0 0 0 0 0 0 0 127 0"/><feOffset/><feGaussianBlur stdDeviation="2"/><feColorMatrix values="0 0 0 0 0.141176 0 0 0 0 0.772549 0 0 0 0 0.968627 0 0 0 0.6 0"/><feBlend in2="BackgroundImageFix" result="effect1_dropShadow_2237_26033"/><feBlend in="SourceGraphic" in2="effect1_dropShadow_2237_26033" result="shape"/></filter><filter id="filter11_d_2237_26033" width="19.262" height="10.169" x="44.723" y="82.57" color-interpolation-filters="sRGB" filterUnits="userSpaceOnUse"><feFlood flood-opacity="0" result="BackgroundImageFix"/><feColorMatrix in="SourceAlpha" result="hardAlpha" values="0 0 0 0 0 0 0 0 0 0 0 0 0 0 0 0 0 0 127 0"/><feOffset/><feGaussianBlur stdDeviation="2"/><feColorMatrix values="0 0 0 0 0.403922 0 0 0 0 0.843137 0 0 0 0 0.74902 0 0 0 0.600388 0"/><feBlend in2="BackgroundImageFix" result="effect1_dropShadow_2237_26033"/><feBlend in="SourceGraphic" in2="effect1_dropShadow_2237_26033" result="shape"/></filter><filter id="filter12_d_2237_26033" width="17.385" height="10.169" x="18.714" y="82.57" color-interpolation-filters="sRGB" filterUnits="userSpaceOnUse"><feFlood flood-opacity="0" result="BackgroundImageFix"/><feColorMatrix in="SourceAlpha" result="hardAlpha" values="0 0 0 0 0 0 0 0 0 0 0 0 0 0 0 0 0 0 127 0"/><feOffset/><feGaussianBlur stdDeviation="2"/><feColorMatrix values="0 0 0 0 0.403922 0 0 0 0 0.843137 0 0 0 0 0.74902 0 0 0 0.600388 0"/><feBlend in2="BackgroundImageFix" result="effect1_dropShadow_2237_26033"/><feBlend in="SourceGraphic" in2="effect1_dropShadow_2237_26033" result="shape"/></filter><filter id="filter13_d_2237_26033" width="11.754" height="10.169" x="12.815" y="82.57" color-interpolation-filters="sRGB" filterUnits="userSpaceOnUse"><feFlood flood-opacity="0" result="BackgroundImageFix"/><feColorMatrix in="SourceAlpha" result="hardAlpha" values="0 0 0 0 0 0 0 0 0 0 0 0 0 0 0 0 0 0 127 0"/><feOffset/><feGaussianBlur stdDeviation="2"/><feColorMatrix values="0 0 0 0 0.403922 0 0 0 0 0.843137 0 0 0 0 0.74902 0 0 0 0.600388 0"/><feBlend in2="BackgroundImageFix" result="effect1_dropShadow_2237_26033"/><feBlend in="SourceGraphic" in2="effect1_dropShadow_2237_26033" result="shape"/></filter><filter id="filter14_d_2237_26033" width="18.323" height="10.169" x="17.91" y="64.827" color-interpolation-filters="sRGB" filterUnits="userSpaceOnUse"><feFlood flood-opacity="0" result="BackgroundImageFix"/><feColorMatrix in="SourceAlpha" result="hardAlpha" values="0 0 0 0 0 0 0 0 0 0 0 0 0 0 0 0 0 0 127 0"/><feOffset/><feGaussianBlur stdDeviation="2"/><feColorMatrix values="0 0 0 0 0.141176 0 0 0 0 0.772549 0 0 0 0 0.968627 0 0 0 0.6 0"/><feBlend in2="BackgroundImageFix" result="effect1_dropShadow_2237_26033"/><feBlend in="SourceGraphic" in2="effect1_dropShadow_2237_26033" result="shape"/></filter><filter id="filter15_d_2237_26033" width="15.508" height="10.169" x="37.886" y="64.827" color-interpolation-filters="sRGB" filterUnits="userSpaceOnUse"><feFlood flood-opacity="0" result="BackgroundImageFix"/><feColorMatrix in="SourceAlpha" result="hardAlpha" values="0 0 0 0 0 0 0 0 0 0 0 0 0 0 0 0 0 0 127 0"/><feOffset/><feGaussianBlur stdDeviation="2"/><feColorMatrix values="0 0 0 0 0.141176 0 0 0 0 0.772549 0 0 0 0 0.968627 0 0 0 0.6 0"/><feBlend in2="BackgroundImageFix" result="effect1_dropShadow_2237_26033"/><feBlend in="SourceGraphic" in2="effect1_dropShadow_2237_26033" result="shape"/></filter><filter id="filter16_d_2237_26033" width="14.569" height="10.169" x="64.431" y="64.827" color-interpolation-filters="sRGB" filterUnits="userSpaceOnUse"><feFlood flood-opacity="0" result="BackgroundImageFix"/><feColorMatrix in="SourceAlpha" result="hardAlpha" values="0 0 0 0 0 0 0 0 0 0 0 0 0 0 0 0 0 0 127 0"/><feOffset/><feGaussianBlur stdDeviation="2"/><feColorMatrix values="0 0 0 0 0.141176 0 0 0 0 0.772549 0 0 0 0 0.968627 0 0 0 0.6 0"/><feBlend in2="BackgroundImageFix" result="effect1_dropShadow_2237_26033"/><feBlend in="SourceGraphic" in2="effect1_dropShadow_2237_26033" result="shape"/></filter><filter id="filter17_d_2237_26033" width="23.954" height="10.169" x="37.886" y="43.141" color-interpolation-filters="sRGB" filterUnits="userSpaceOnUse"><feFlood flood-opacity="0" result="BackgroundImageFix"/><feColorMatrix in="SourceAlpha" result="hardAlpha" values="0 0 0 0 0 0 0 0 0 0 0 0 0 0 0 0 0 0 127 0"/><feOffset/><feGaussianBlur stdDeviation="2"/><feColorMatrix values="0 0 0 0 0.141176 0 0 0 0 0.772549 0 0 0 0 0.968627 0 0 0 0.6 0"/><feBlend in2="BackgroundImageFix" result="effect1_dropShadow_2237_26033"/><feBlend in="SourceGraphic" in2="effect1_dropShadow_2237_26033" result="shape"/></filter><filter id="filter18_d_2237_26033" width="13.631" height="10.169" x="42.042" y="30.13" color-interpolation-filters="sRGB" filterUnits="userSpaceOnUse"><feFlood flood-opacity="0" result="BackgroundImageFix"/><feColorMatrix in="SourceAlpha" result="hardAlpha" values="0 0 0 0 0 0 0 0 0 0 0 0 0 0 0 0 0 0 127 0"/><feOffset/><feGaussianBlur stdDeviation="2"/><feColorMatrix values="0 0 0 0 0.141176 0 0 0 0 0.772549 0 0 0 0 0.968627 0 0 0 0.6 0"/><feBlend in2="BackgroundImageFix" result="effect1_dropShadow_2237_26033"/><feBlend in="SourceGraphic" in2="effect1_dropShadow_2237_26033" result="shape"/></filter><filter id="filter19_d_2237_26033" width="21.138" height="10.169" x="57.862" y="30.13" color-interpolation-filters="sRGB" filterUnits="userSpaceOnUse"><feFlood flood-opacity="0" result="BackgroundImageFix"/><feColorMatrix in="SourceAlpha" result="hardAlpha" values="0 0 0 0 0 0 0 0 0 0 0 0 0 0 0 0 0 0 127 0"/><feOffset/><feGaussianBlur stdDeviation="2"/><feColorMatrix values="0 0 0 0 0.141176 0 0 0 0 0.772549 0 0 0 0 0.968627 0 0 0 0.6 0"/><feBlend in2="BackgroundImageFix" result="effect1_dropShadow_2237_26033"/><feBlend in="SourceGraphic" in2="effect1_dropShadow_2237_26033" result="shape"/></filter><filter id="filter20_d_2237_26033" width="9.877" height="10.169" x="33.73" y="73.501" color-interpolation-filters="sRGB" filterUnits="userSpaceOnUse"><feFlood flood-opacity="0" result="BackgroundImageFix"/><feColorMatrix in="SourceAlpha" result="hardAlpha" values="0 0 0 0 0 0 0 0 0 0 0 0 0 0 0 0 0 0 127 0"/><feOffset/><feGaussianBlur stdDeviation="2"/><feColorMatrix values="0 0 0 0 0.141176 0 0 0 0 0.772549 0 0 0 0 0.968627 0 0 0 0.6 0"/><feBlend in2="BackgroundImageFix" result="effect1_dropShadow_2237_26033"/><feBlend in="SourceGraphic" in2="effect1_dropShadow_2237_26033" result="shape"/></filter><filter id="filter21_d_2237_26033" width="9.877" height="10.169" x="37.886" y="73.501" color-interpolation-filters="sRGB" filterUnits="userSpaceOnUse"><feFlood flood-opacity="0" result="BackgroundImageFix"/><feColorMatrix in="SourceAlpha" result="hardAlpha" values="0 0 0 0 0 0 0 0 0 0 0 0 0 0 0 0 0 0 127 0"/><feOffset/><feGaussianBlur stdDeviation="2"/><feColorMatrix values="0 0 0 0 0.141176 0 0 0 0 0.772549 0 0 0 0 0.968627 0 0 0 0.6 0"/><feBlend in2="BackgroundImageFix" result="effect1_dropShadow_2237_26033"/><feBlend in="SourceGraphic" in2="effect1_dropShadow_2237_26033" result="shape"/></filter><filter id="filter22_d_2237_26033" width="13.631" height="10.169" x="49.952" y="73.501" color-interpolation-filters="sRGB" filterUnits="userSpaceOnUse"><feFlood flood-opacity="0" result="BackgroundImageFix"/><feColorMatrix in="SourceAlpha" result="hardAlpha" values="0 0 0 0 0 0 0 0 0 0 0 0 0 0 0 0 0 0 127 0"/><feOffset/><feGaussianBlur stdDeviation="2"/><feColorMatrix values="0 0 0 0 0.141176 0 0 0 0 0.772549 0 0 0 0 0.968627 0 0 0 0.6 0"/><feBlend in2="BackgroundImageFix" result="effect1_dropShadow_2237_26033"/><feBlend in="SourceGraphic" in2="effect1_dropShadow_2237_26033" result="shape"/></filter><filter id="filter23_d_2237_26033" width="15.508" height="10.169" x="37.886" y="34.467" color-interpolation-filters="sRGB" filterUnits="userSpaceOnUse"><feFlood flood-opacity="0" result="BackgroundImageFix"/><feColorMatrix in="SourceAlpha" result="hardAlpha" values="0 0 0 0 0 0 0 0 0 0 0 0 0 0 0 0 0 0 127 0"/><feOffset/><feGaussianBlur stdDeviation="2"/><feColorMatrix values="0 0 0 0 0.141176 0 0 0 0 0.772549 0 0 0 0 0.968627 0 0 0 0.6 0"/><feBlend in2="BackgroundImageFix" result="effect1_dropShadow_2237_26033"/><feBlend in="SourceGraphic" in2="effect1_dropShadow_2237_26033" result="shape"/></filter><filter id="filter24_d_2237_26033" width="18.323" height="10.169" x="17.91" y="77.838" color-interpolation-filters="sRGB" filterUnits="userSpaceOnUse"><feFlood flood-opacity="0" result="BackgroundImageFix"/><feColorMatrix in="SourceAlpha" result="hardAlpha" values="0 0 0 0 0 0 0 0 0 0 0 0 0 0 0 0 0 0 127 0"/><feOffset/><feGaussianBlur stdDeviation="2"/><feColorMatrix values="0 0 0 0 0.403922 0 0 0 0 0.843137 0 0 0 0 0.74902 0 0 0 0.600388 0"/><feBlend in2="BackgroundImageFix" result="effect1_dropShadow_2237_26033"/><feBlend in="SourceGraphic" in2="effect1_dropShadow_2237_26033" result="shape"/></filter><filter id="filter25_d_2237_26033" width="15.508" height="10.169" x="37.886" y="77.838" color-interpolation-filters="sRGB" filterUnits="userSpaceOnUse"><feFlood flood-opacity="0" result="BackgroundImageFix"/><feColorMatrix in="SourceAlpha" result="hardAlpha" values="0 0 0 0 0 0 0 0 0 0 0 0 0 0 0 0 0 0 127 0"/><feOffset/><feGaussianBlur stdDeviation="2"/><feColorMatrix values="0 0 0 0 0.403922 0 0 0 0 0.843137 0 0 0 0 0.74902 0 0 0 0.600388 0"/><feBlend in2="BackgroundImageFix" result="effect1_dropShadow_2237_26033"/><feBlend in="SourceGraphic" in2="effect1_dropShadow_2237_26033" result="shape"/></filter><filter id="filter26_d_2237_26033" width="14.569" height="10.169" x="64.431" y="77.838" color-interpolation-filters="sRGB" filterUnits="userSpaceOnUse"><feFlood flood-opacity="0" result="BackgroundImageFix"/><feColorMatrix in="SourceAlpha" result="hardAlpha" values="0 0 0 0 0 0 0 0 0 0 0 0 0 0 0 0 0 0 127 0"/><feOffset/><feGaussianBlur stdDeviation="2"/><feColorMatrix values="0 0 0 0 0.403922 0 0 0 0 0.843137 0 0 0 0 0.74902 0 0 0 0.600388 0"/><feBlend in2="BackgroundImageFix" result="effect1_dropShadow_2237_26033"/><feBlend in="SourceGraphic" in2="effect1_dropShadow_2237_26033" result="shape"/></filter><filter id="filter27_d_2237_26033" width="20.2" height="10.169" x="23.407" y="38.804" color-interpolation-filters="sRGB" filterUnits="userSpaceOnUse"><feFlood flood-opacity="0" result="BackgroundImageFix"/><feColorMatrix in="SourceAlpha" result="hardAlpha" values="0 0 0 0 0 0 0 0 0 0 0 0 0 0 0 0 0 0 127 0"/><feOffset/><feGaussianBlur stdDeviation="2"/><feColorMatrix values="0 0 0 0 0.141176 0 0 0 0 0.772549 0 0 0 0 0.968627 0 0 0 0.6 0"/><feBlend in2="BackgroundImageFix" result="effect1_dropShadow_2237_26033"/><feBlend in="SourceGraphic" in2="effect1_dropShadow_2237_26033" result="shape"/></filter><filter id="filter28_d_2237_26033" width="23.954" height="10.169" x="55.046" y="38.804" color-interpolation-filters="sRGB" filterUnits="userSpaceOnUse"><feFlood flood-opacity="0" result="BackgroundImageFix"/><feColorMatrix in="SourceAlpha" result="hardAlpha" values="0 0 0 0 0 0 0 0 0 0 0 0 0 0 0 0 0 0 127 0"/><feOffset/><feGaussianBlur stdDeviation="2"/><feColorMatrix values="0 0 0 0 0.141176 0 0 0 0 0.772549 0 0 0 0 0.968627 0 0 0 0.6 0"/><feBlend in2="BackgroundImageFix" result="effect1_dropShadow_2237_26033"/><feBlend in="SourceGraphic" in2="effect1_dropShadow_2237_26033" result="shape"/></filter><filter id="filter29_d_2237_26033" width="18.323" height="10.169" x="52.767" y="21.455" color-interpolation-filters="sRGB" filterUnits="userSpaceOnUse"><feFlood flood-opacity="0" result="BackgroundImageFix"/><feColorMatrix in="SourceAlpha" result="hardAlpha" values="0 0 0 0 0 0 0 0 0 0 0 0 0 0 0 0 0 0 127 0"/><feOffset/><feGaussianBlur stdDeviation="2"/><feColorMatrix values="0 0 0 0 0.141176 0 0 0 0 0.772549 0 0 0 0 0.968627 0 0 0 0.6 0"/><feBlend in2="BackgroundImageFix" result="effect1_dropShadow_2237_26033"/><feBlend in="SourceGraphic" in2="effect1_dropShadow_2237_26033" result="shape"/></filter><filter id="filter30_d_2237_26033" width="15.508" height="10.169" x="35.607" y="21.455" color-interpolation-filters="sRGB" filterUnits="userSpaceOnUse"><feFlood flood-opacity="0" result="BackgroundImageFix"/><feColorMatrix in="SourceAlpha" result="hardAlpha" values="0 0 0 0 0 0 0 0 0 0 0 0 0 0 0 0 0 0 127 0"/><feOffset/><feGaussianBlur stdDeviation="2"/><feColorMatrix values="0 0 0 0 0.141176 0 0 0 0 0.772549 0 0 0 0 0.968627 0 0 0 0.6 0"/><feBlend in2="BackgroundImageFix" result="effect1_dropShadow_2237_26033"/><feBlend in="SourceGraphic" in2="effect1_dropShadow_2237_26033" result="shape"/></filter><filter id="filter31_d_2237_26033" width="23.954" height="10.169" x="10" y="25.793" color-interpolation-filters="sRGB" filterUnits="userSpaceOnUse"><feFlood flood-opacity="0" result="BackgroundImageFix"/><feColorMatrix in="SourceAlpha" result="hardAlpha" values="0 0 0 0 0 0 0 0 0 0 0 0 0 0 0 0 0 0 127 0"/><feOffset/><feGaussianBlur stdDeviation="2"/><feColorMatrix values="0 0 0 0 0.141176 0 0 0 0 0.772549 0 0 0 0 0.968627 0 0 0 0.6 0"/><feBlend in2="BackgroundImageFix" result="effect1_dropShadow_2237_26033"/><feBlend in="SourceGraphic" in2="effect1_dropShadow_2237_26033" result="shape"/></filter><filter id="filter32_d_2237_26033" width="20.2" height="10.169" x="45.393" y="69.164" color-interpolation-filters="sRGB" filterUnits="userSpaceOnUse"><feFlood flood-opacity="0" result="BackgroundImageFix"/><feColorMatrix in="SourceAlpha" result="hardAlpha" values="0 0 0 0 0 0 0 0 0 0 0 0 0 0 0 0 0 0 127 0"/><feOffset/><feGaussianBlur stdDeviation="2"/><feColorMatrix values="0 0 0 0 0.141176 0 0 0 0 0.772549 0 0 0 0 0.968627 0 0 0 0.6 0"/><feBlend in2="BackgroundImageFix" result="effect1_dropShadow_2237_26033"/><feBlend in="SourceGraphic" in2="effect1_dropShadow_2237_26033" result="shape"/></filter><filter id="filter33_d_2237_26033" width="23.954" height="10.169" x="10" y="69.164" color-interpolation-filters="sRGB" filterUnits="userSpaceOnUse"><feFlood flood-opacity="0" result="BackgroundImageFix"/><feColorMatrix in="SourceAlpha" result="hardAlpha" values="0 0 0 0 0 0 0 0 0 0 0 0 0 0 0 0 0 0 127 0"/><feOffset/><feGaussianBlur stdDeviation="2"/><feColorMatrix values="0 0 0 0 0.141176 0 0 0 0 0.772549 0 0 0 0 0.968627 0 0 0 0.6 0"/><feBlend in2="BackgroundImageFix" result="effect1_dropShadow_2237_26033"/><feBlend in="SourceGraphic" in2="effect1_dropShadow_2237_26033" result="shape"/></filter><filter id="filter34_d_2237_26033" width="29.081" height="52.458" x="79" y="26.118" color-interpolation-filters="sRGB" filterUnits="userSpaceOnUse"><feFlood flood-opacity="0" result="BackgroundImageFix"/><feColorMatrix in="SourceAlpha" result="hardAlpha" values="0 0 0 0 0 0 0 0 0 0 0 0 0 0 0 0 0 0 127 0"/><feOffset/><feGaussianBlur stdDeviation="3"/><feComposite in2="hardAlpha" operator="out"/><feColorMatrix values="0 0 0 0 0.156863 0 0 0 0 0.8 0 0 0 0 0.972549 0 0 0 0.3 0"/><feBlend in2="BackgroundImageFix" result="effect1_dropShadow_2237_26033"/><feBlend in="SourceGraphic" in2="effect1_dropShadow_2237_26033" result="shape"/></filter><filter id="filter35_d_2237_26033" width="11" height="11" x="98" y="97.118" color-interpolation-filters="sRGB" filterUnits="userSpaceOnUse"><feFlood flood-opacity="0" result="BackgroundImageFix"/><feColorMatrix in="SourceAlpha" result="hardAlpha" values="0 0 0 0 0 0 0 0 0 0 0 0 0 0 0 0 0 0 127 0"/><feOffset/><feGaussianBlur stdDeviation="2"/><feColorMatrix values="0 0 0 0 0.141176 0 0 0 0 0.772549 0 0 0 0 0.968627 0 0 0 1 0"/><feBlend in2="BackgroundImageFix" result="effect1_dropShadow_2237_26033"/><feBlend in="SourceGraphic" in2="effect1_dropShadow_2237_26033" result="shape"/></filter><filter id="filter36_d_2237_26033" width="16" height="11" x="3" y="97.118" color-interpolation-filters="sRGB" filterUnits="userSpaceOnUse"><feFlood flood-opacity="0" result="BackgroundImageFix"/><feColorMatrix in="SourceAlpha" result="hardAlpha" values="0 0 0 0 0 0 0 0 0 0 0 0 0 0 0 0 0 0 127 0"/><feOffset/><feGaussianBlur stdDeviation="2"/><feColorMatrix values="0 0 0 0 0.141176 0 0 0 0 0.772549 0 0 0 0 0.968627 0 0 0 1 0"/><feBlend in2="BackgroundImageFix" result="effect1_dropShadow_2237_26033"/><feBlend in="SourceGraphic" in2="effect1_dropShadow_2237_26033" result="shape"/></filter><filter id="filter37_d_2237_26033" width="14.001" height="14.001" x="68.003" y="50.561" color-interpolation-filters="sRGB" filterUnits="userSpaceOnUse"><feFlood flood-opacity="0" result="BackgroundImageFix"/><feColorMatrix in="SourceAlpha" result="hardAlpha" values="0 0 0 0 0 0 0 0 0 0 0 0 0 0 0 0 0 0 127 0"/><feOffset/><feGaussianBlur stdDeviation="2"/><feColorMatrix values="0 0 0 0 0.180392 0 0 0 0 0.811765 0 0 0 0 0.976471 0 0 0 1 0"/><feBlend in2="BackgroundImageFix" result="effect1_dropShadow_2237_26033"/><feBlend in="SourceGraphic" in2="effect1_dropShadow_2237_26033" result="shape"/></filter><radialGradient id="paint2_radial_2237_26033" cx="0" cy="0" r="1" gradientTransform="matrix(0 5.5 -50.5 0 60.5 111.5)" gradientUnits="userSpaceOnUse"><stop stop-color="#060606"/><stop offset="1" stop-opacity="0"/></radialGradient><radialGradient id="paint5_radial_2237_26033" cx="0" cy="0" r="1" gradientTransform="rotate(103.651 43.855 64.105) scale(36.0174 573.954)" gradientUnits="userSpaceOnUse"><stop stop-color="#00C9FF"/><stop offset="1" stop-color="#76E2FF" stop-opacity=".01"/></radialGradient><radialGradient id="paint6_radial_2237_26033" cx="0" cy="0" r="1" gradientTransform="matrix(65.3854 0 0 23.8369 28.5 87.566)" gradientUnits="userSpaceOnUse"><stop stop-color="#00C9FF" stop-opacity="0"/><stop offset=".487" stop-color="#3AD5FF"/><stop offset="1" stop-color="#76E2FF" stop-opacity=".01"/></radialGradient><radialGradient id="paint10_radial_2237_26033" cx="0" cy="0" r="1" gradientTransform="matrix(0 9 -42.1724 0 56.5 97.118)" gradientUnits="userSpaceOnUse"><stop stop-color="#00C3FF"/><stop offset="1" stop-color="#267195" stop-opacity="0"/></radialGradient><radialGradient id="paint12_radial_2237_26033" cx="0" cy="0" r="1" gradientTransform="matrix(0 14 -53.1538 0 57.5 97.618)" gradientUnits="userSpaceOnUse"><stop stop-color="#00C3FF"/><stop offset="1" stop-color="#267195"/></radialGradient><radialGradient id="paint13_radial_2237_26033" cx="0" cy="0" r="1" gradientTransform="matrix(0 2.5 -13.4628 0 57.5 97.618)" gradientUnits="userSpaceOnUse"><stop stop-color="#00C3FF"/><stop offset="1" stop-color="#267195"/></radialGradient><radialGradient id="paint15_radial_2237_26033" cx="0" cy="0" r="1" gradientTransform="matrix(-1 24.5 -115.0542 -4.69608 26 87.118)" gradientUnits="userSpaceOnUse"><stop stop-color="#00C3FF"/><stop offset="1" stop-color="#267195"/></radialGradient><radialGradient id="paint16_radial_2237_26033" cx="0" cy="0" r="1" gradientTransform="matrix(-18.99993 -8.0001 2.81095 -6.6759 8 97.118)" gradientUnits="userSpaceOnUse"><stop stop-color="#24C5F7"/><stop offset="1" stop-color="#76E2FF" stop-opacity=".01"/></radialGradient><radialGradient id="paint17_radial_2237_26033" cx="0" cy="0" r="1" gradientTransform="matrix(13 0 0 21.669 113.5 97.118)" gradientUnits="userSpaceOnUse"><stop stop-color="#00C9FF"/><stop offset="1" stop-color="#76E2FF" stop-opacity=".01"/></radialGradient><radialGradient id="paint18_radial_2237_26033" cx="0" cy="0" r="1" gradientTransform="matrix(11.6833 0 0 27.6735 93.54 52.347)" gradientUnits="userSpaceOnUse"><stop stop-color="#21C8F6"/><stop offset="1" stop-color="#4BDEFF"/></radialGradient><radialGradient id="paint19_radial_2237_26033" cx="0" cy="0" r="1" gradientTransform="matrix(11.6833 0 0 27.6735 93.54 52.347)" gradientUnits="userSpaceOnUse"><stop stop-color="#21C8F6"/><stop offset="1" stop-color="#4BDEFF"/></radialGradient><radialGradient id="paint20_radial_2237_26033" cx="0" cy="0" r="1" gradientTransform="rotate(90.187 27.055 66.457) scale(7.68078 69.6965)" gradientUnits="userSpaceOnUse"><stop stop-color="#21C8F6"/><stop offset="1" stop-color="#4BDEFF"/></radialGradient><radialGradient id="paint24_radial_2237_26033" cx="0" cy="0" r="1" gradientTransform="translate(74.362 57.603) scale(9.59771)" gradientUnits="userSpaceOnUse"><stop stop-color="#257EDD"/><stop offset="1" stop-color="#267EDC" stop-opacity=".01"/></radialGradient><radialGradient id="paint25_radial_2237_26033" cx="0" cy="0" r="1" gradientTransform="translate(75.004 57.561) scale(4.104)" gradientUnits="userSpaceOnUse"><stop stop-color="#21C8F6"/><stop offset="1" stop-color="#4BDEFF"/></radialGradient><radialGradient id="paint28_radial_2237_26033" cx="0" cy="0" r="1" gradientTransform="matrix(87.878 0 0 23.8369 19.672 112.066)" gradientUnits="userSpaceOnUse"><stop stop-color="#00C9FF" stop-opacity="0"/><stop offset=".487" stop-color="#3AD5FF"/><stop offset="1" stop-color="#76E2FF" stop-opacity=".01"/></radialGradient><linearGradient id="paint0_linear_2237_26033" x1="-5.077" x2="87.231" y1="-35.077" y2="101.538" gradientUnits="userSpaceOnUse"><stop stop-color="#2D79B7"/><stop offset="1" stop-color="#101A2A"/></linearGradient><linearGradient id="paint1_linear_2237_26033" x1="-25.227" x2="4.038" y1="22.708" y2="134.632" gradientUnits="userSpaceOnUse"><stop stop-color="#22C8F6"/><stop offset="1" stop-color="#637BFF"/></linearGradient><linearGradient id="paint3_linear_2237_26033" x1="29.5" x2="62.5" y1="44.618" y2="95.118" gradientUnits="userSpaceOnUse"><stop stop-color="#5B79A2"/><stop offset="1" stop-color="#2F456A"/></linearGradient><linearGradient id="paint4_linear_2237_26033" x1="7" x2="53.5" y1="4.118" y2="90.618" gradientUnits="userSpaceOnUse"><stop stop-color="#00BAFF"/><stop offset="1" stop-color="#111B2C" stop-opacity=".13"/></linearGradient><linearGradient id="paint7_linear_2237_26033" x1="59.993" x2="59.993" y1="96.7" y2="111.118" gradientUnits="userSpaceOnUse"><stop stop-color="#1E2D45"/><stop offset="1" stop-color="#0C131F"/></linearGradient><linearGradient id="paint8_linear_2237_26033" x1="3.964" x2="8.627" y1="110.208" y2="81.169" gradientUnits="userSpaceOnUse"><stop stop-color="#4EA0F2"/><stop offset="1" stop-color="#133764"/></linearGradient><linearGradient id="paint9_linear_2237_26033" x1="60" x2="60" y1="91.618" y2="111.118" gradientUnits="userSpaceOnUse"><stop stop-color="#4EA0F2" stop-opacity="0"/><stop offset="1" stop-color="#02070E"/></linearGradient><linearGradient id="paint11_linear_2237_26033" x1="57.5" x2="57.5" y1="96.618" y2="100.118" gradientUnits="userSpaceOnUse"><stop stop-color="#587AAC"/><stop offset="1" stop-color="#253653"/></linearGradient><linearGradient id="paint14_linear_2237_26033" x1="60" x2="60" y1="88.799" y2="99.618" gradientUnits="userSpaceOnUse"><stop stop-color="#6588B8"/><stop offset="1" stop-color="#2F456A"/></linearGradient><linearGradient id="paint21_linear_2237_26033" x1="55.387" x2="41.387" y1="19.118" y2=".118" gradientUnits="userSpaceOnUse"><stop stop-color="#45E6FB"/><stop offset="1" stop-color="#21C8F6" stop-opacity=".01"/></linearGradient><linearGradient id="paint22_linear_2237_26033" x1="59.387" x2="71" y1="2.118" y2="19.118" gradientUnits="userSpaceOnUse"><stop stop-color="#45E6FB"/><stop offset="1" stop-color="#21C8F6" stop-opacity=".01"/></linearGradient><linearGradient id="paint23_linear_2237_26033" x1="54.654" x2="54.654" y1="1.699" y2="7.385" gradientUnits="userSpaceOnUse"><stop stop-color="#21C8F6"/><stop offset="1" stop-color="#637BFF"/></linearGradient><linearGradient id="paint26_linear_2237_26033" x1="32.284" x2="32.284" y1="35.916" y2="43.716" gradientUnits="userSpaceOnUse"><stop stop-color="#21C8F6"/><stop offset="1" stop-color="#637BFF"/></linearGradient><linearGradient id="paint27_linear_2237_26033" x1="91.608" x2="35.529" y1="66.079" y2="30.393" gradientUnits="userSpaceOnUse"><stop stop-color="#21C8F6" stop-opacity="0"/><stop offset="1" stop-color="#309CFF"/></linearGradient><clipPath id="clip0_2237_26033"><path fill="#fff" d="M0 0h120v120H0z"/></clipPath></defs></svg>